<?xml version="1.0"?>
<svg width="1254" height="1280" xmlns="http://www.w3.org/2000/svg" xmlns:svg="http://www.w3.org/2000/svg" preserveAspectRatio="xMidYMid meet" version="1.0">
 <metadata>Created by potrace 1.15, written by Peter Selinger 2001-2017</metadata>
 <g class="layer">
  <title>Layer 1</title>
  <g fill="#000000" id="svg_1" transform="matrix(0.1 0 0 -0.1 0 0)">
   <path d="m9073,-18c-69,-25 -132,-78 -168,-143l-30,-54l-3,-505l-3,-505l-124,-24c-69,-13 -182,-43 -251,-66l-125,-42l-33,56c-17,31 -124,216 -237,411c-122,212 -220,370 -243,393c-59,60 -116,82 -211,82c-96,0 -152,-22 -215,-85c-81,-81 -110,-204 -73,-310c11,-30 124,-235 251,-454l231,-399l-66,-62l-67,-62l45,-38c96,-83 319,-316 404,-420c330,-407 556,-854 679,-1346c53,-209 76,-355 101,-630l6,-67l67,-7c207,-21 475,-84 690,-161c260,-93 594,-276 820,-450c45,-35 86,-64 91,-64c5,0 67,61 138,135l130,134l409,-236c225,-130 429,-243 454,-250c136,-43 300,37 363,175c46,103 18,251 -65,333c-18,19 -213,137 -431,263c-219,126 -404,234 -412,240c-12,9 -10,23 15,94c34,95 73,245 90,345l12,67l484,0c469,0 485,1 540,21c163,61 244,249 175,407c-30,66 -113,144 -177,166c-41,14 -114,16 -534,16l-487,0l-23,119c-12,65 -42,177 -65,247c-32,97 -40,132 -31,140c6,6 189,113 406,238c245,141 411,243 437,268c87,85 113,223 64,336c-60,134 -221,211 -361,172c-20,-5 -222,-118 -450,-249l-415,-240l-44,52c-60,69 -203,212 -269,268l-54,45l236,410c137,236 243,432 253,463c31,106 -5,219 -94,301c-124,113 -321,104 -427,-21c-17,-21 -136,-220 -264,-443l-233,-405l-67,26c-80,30 -307,89 -380,99l-51,6l-3,502c-3,501 -3,501 -26,548c-30,60 -90,121 -149,149c-63,30 -162,35 -230,11z" fill="#26c485" id="svg_2"/>
   <path d="m5225,-1561c-684,-64 -1296,-350 -1776,-828c-85,-86 -186,-194 -223,-241c-226,-285 -407,-631 -511,-975c-61,-202 -115,-509 -115,-653c0,-55 -8,-62 -85,-62c-22,0 -102,-9 -177,-20c-571,-84 -1088,-339 -1502,-740c-226,-220 -401,-454 -534,-717c-193,-381 -284,-735 -299,-1158c-27,-775 277,-1522 838,-2059c62,-60 154,-140 204,-179c101,-79 323,-227 340,-227c6,0 197,539 424,1197c228,659 431,1243 453,1299c135,352 482,636 866,710c114,22 1441,21 1550,-2c160,-32 309,-112 426,-229c91,-91 150,-186 192,-310c48,-144 45,-363 -8,-520c-30,-89 -59,-144 -362,-677c-152,-268 -276,-490 -276,-492c0,-2 161,-6 358,-9c394,-4 442,-10 588,-77c392,-177 549,-632 354,-1025c-22,-44 -64,-113 -95,-153l-54,-73l1567,4c1720,3 1606,-1 1877,64c911,216 1625,944 1829,1863c44,199 51,280 50,545c-1,223 -4,266 -27,395c-90,506 -310,936 -662,1299c-397,409 -877,649 -1465,732c-107,15 -482,16 -575,1c-38,-6 -71,-9 -73,-8c-2,2 2,39 8,83c48,346 28,702 -61,1063c-282,1147 -1247,2009 -2424,2165c-146,19 -483,27 -620,14z" fill="#26c485" id="svg_3"/>
   <path d="m3235,-6832c-134,-25 -300,-147 -362,-265c-17,-32 -228,-627 -469,-1323c-416,-1199 -439,-1269 -439,-1335c0,-58 5,-78 27,-116c24,-41 70,-80 123,-105c11,-5 262,-11 565,-14l545,-5l53,-29c96,-53 130,-149 94,-261c-11,-33 -243,-571 -516,-1195c-274,-624 -504,-1156 -513,-1182c-27,-85 -3,-100 64,-40c68,59 2960,3381 2979,3420c30,64 30,104 -2,141c-15,18 -39,38 -53,44c-19,9 -231,13 -751,17l-725,5l-50,25c-66,33 -95,77 -95,145c0,29 5,67 12,86c6,19 223,408 482,864c259,457 479,855 489,885c34,101 2,180 -93,224c-44,21 -58,21 -680,23c-373,0 -656,-3 -685,-9z" fill="#26c485" id="svg_4"/>
   <path d="m5725,-10304c-101,-32 -179,-92 -229,-178c-15,-26 -144,-424 -303,-934l-276,-889l-1,-100c-1,-92 1,-105 30,-165c119,-250 445,-304 635,-103c27,29 59,73 70,97c10,24 141,437 291,917l272,874l0,105c1,93 -2,111 -25,161c-66,141 -208,230 -363,228c-34,0 -79,-6 -101,-13z" fill="#26c485" id="svg_5"/>
   <path d="m7795,-10310c-106,-36 -202,-125 -239,-225c-34,-91 -554,-1793 -560,-1831c-3,-22 -1,-66 4,-98c27,-169 152,-296 323,-327c154,-28 326,53 401,190c15,28 151,450 303,938l277,888l0,95c1,87 -2,101 -31,162c-64,136 -189,219 -338,225c-60,2 -95,-2 -140,-17z" fill="#26c485" id="svg_6"/>
  </g>
 </g>
</svg>